HIERARCHY
ROOT Hips
{
    OFFSET 0.000000 0.000000 0.000000
    CHANNELS 6 Xposition Yposition Zposition Zrotation Xrotation Yrotation
    JOINT Spine
    {
        OFFSET -0.000000 7.236184 0.000000
        CHANNELS 3 Zrotation Xrotation Yrotation
        JOINT Spine1
        {
            OFFSET -0.000000 20.420147 0.000000
            CHANNELS 3 Zrotation Xrotation Yrotation
            JOINT Neck
            {
                OFFSET -0.000000 20.336288 1.848754
                CHANNELS 3 Zrotation Xrotation Yrotation
                JOINT Head
                {
                    OFFSET -0.000000 12.354461 -1.764923
                    CHANNELS 3 Zrotation Xrotation Yrotation
                    End Site
                    {
                        OFFSET -0.000000 22.061537 0.000000
                    }
                }
            }
            JOINT LeftShoulder
            {
                OFFSET 3.573296 18.396038 -0.314103
                CHANNELS 3 Zrotation Xrotation Yrotation
                JOINT LeftArm
                {
                    OFFSET 10.880760 0.000000 0.000000
                    CHANNELS 3 Zrotation Xrotation Yrotation
                    JOINT LeftForeArm
                    {
                        OFFSET 27.185530 0.000000 0.000000
                        CHANNELS 3 Zrotation Xrotation Yrotation
                        JOINT LeftHand
                        {
                            OFFSET 27.825975 0.000000 0.000000
                            CHANNELS 3 Zrotation Xrotation Yrotation
                            End Site
                            {
                                OFFSET 13.236923 0.000000 0.000000
                            }
                        }
                    }
                }
            }
            JOINT RightShoulder
            {
                OFFSET -3.474926 18.396038 -0.314103
                CHANNELS 3 Zrotation Xrotation Yrotation
                JOINT RightArm
                {
                    OFFSET -10.880760 0.000000 0.000000
                    CHANNELS 3 Zrotation Xrotation Yrotation
                    JOINT RightForeArm
                    {
                        OFFSET -27.185530 0.000000 0.000000
                        CHANNELS 3 Zrotation Xrotation Yrotation
                        JOINT RightHand
                        {
                            OFFSET -27.825975 0.000000 0.000000
                            CHANNELS 3 Zrotation Xrotation Yrotation
                            End Site
                            {
                                OFFSET -13.236923 0.000000 0.000000
                            }
                        }
                    }
                }
            }
        }
    }
    JOINT LeftUpLeg
    {
        OFFSET 8.824615 0.000000 0.000000
        CHANNELS 3 Zrotation Xrotation Yrotation
        JOINT LeftLeg
        {
            OFFSET -0.000000 -35.111282 0.000000
            CHANNELS 3 Zrotation Xrotation Yrotation
            JOINT LeftFoot
            {
                OFFSET -0.000000 -42.324711 0.000000
                CHANNELS 3 Zrotation Xrotation Yrotation
                JOINT LeftToeBase
                {
                    OFFSET -0.000000 -5.735999 13.236923
                    CHANNELS 3 Zrotation Xrotation Yrotation
                    End Site
                    {
                        OFFSET -0.000000 0.000000 3.529846
                    }
                }
            }
        }
    }
    JOINT RightUpLeg
    {
        OFFSET -8.824615 0.000000 0.000000
        CHANNELS 3 Zrotation Xrotation Yrotation
        JOINT RightLeg
        {
            OFFSET -0.000000 -35.111282 0.000000
            CHANNELS 3 Zrotation Xrotation Yrotation
            JOINT RightFoot
            {
                OFFSET -0.000000 -42.324711 0.000000
                CHANNELS 3 Zrotation Xrotation Yrotation
                JOINT RightToeBase
                {
                    OFFSET -0.000000 -5.735999 13.236923
                    CHANNELS 3 Zrotation Xrotation Yrotation
                    End Site
                    {
                        OFFSET -0.000000 0.000000 3.529846
                    }
                }
            }
        }
    }
}
MOTION
Frames:    6
Frame Time:    0.008333
-6.279778    81.041702    112.031464    -0.288165    -9.621474    -167.822800    -0.811202    -10.362147    1.961764    -0.529744    10.254748    2.082814    1.034805    10.832755    -5.291473    12.928524    2.084743    -3.945795    6.489306    8.846322    -15.866845    -42.012966    23.031109    -68.574501    2.205858    -34.591415    -125.168022    37.699402    -27.026699    13.305142    -1.383659    8.332838    12.464416    55.555882    -2.306044    60.250538    0.844456    -37.594513    135.706818    -19.483442    -38.292057    -6.928649    5.506547    -24.614717    -0.144896    -0.287480    29.890667    11.820943    -8.627860    -7.803996    -12.201069    0.077795    -1.099450    -0.086406    -10.788022    -15.162879    -9.264812    11.921258    30.214767    -13.420814    0.000000    0.000000    0.000000    0.000000    0.000000    0.000000    
-6.264439    80.991676    112.028694    0.053824    -9.633252    -166.131439    -0.912379    -10.355515    1.984885    -0.440072    10.336361    2.107342    0.588631    11.150208    -5.695652    13.568806    2.046809    -4.258245    6.442001    8.771585    -15.508319    -41.466049    23.458687    -69.030876    1.990439    -34.421612    -125.000748    37.919868    -27.166662    13.412924    -1.021003    9.055376    12.279982    54.846378    -2.384342    59.235321    0.748950    -36.543037    135.714340    -19.152006    -37.147499    -6.428141    5.322795    -25.126995    -0.705230    0.003828    30.042225    10.774371    -8.725619    -7.869264    -12.355964    0.192033    -0.911640    -0.213215    -10.751351    -14.893444    -9.699901    12.095053    30.331106    -13.947118    0.000000    0.000000    0.000000    0.000000    0.000000    0.000000    
-6.253476    80.951675    112.019440    0.407167    -9.646151    -164.394379    -1.026009    -10.347523    2.001831    -0.333124    10.384929    2.124944    0.160885    11.477940    -6.118551    14.220059    2.009483    -4.592080    6.416448    8.663397    -15.141722    -40.898926    23.831049    -69.489441    1.718820    -34.196850    -124.848259    38.125923    -27.335825    13.536781    -0.647228    9.753322    12.034742    54.034443    -2.541172    58.057354    0.623743    -35.477695    135.592346    -18.772369    -35.930660    -5.866542    5.116349    -25.640791    -1.277007    0.302302    30.161348    9.702157    -8.829514    -7.901564    -12.526953    0.304444    -0.726520    -0.337911    -10.704676    -14.578680    -10.092236    12.283430    30.363953    -14.494290    0.000000    0.000000    0.000000    0.000000    0.000000    0.000000    
-6.247365    80.922081    112.004089    0.773574    -9.659191    -162.615891    -1.149978    -10.337301    2.013377    -0.210679    10.399743    2.136542    -0.239933    11.811289    -6.557417    14.874634    1.970584    -4.945395    6.411724    8.529525    -14.776539    -40.319008    24.149223    -69.949821    1.400106    -33.917572    -124.713783    38.312794    -27.522484    13.667343    -0.268771    10.409851    11.728636    53.121567    -2.771752    56.713688    0.453775    -34.452057    135.331161    -18.335558    -34.664085    -5.246607    4.890562    -26.152576    -1.852390    0.606562    30.244114    8.603834    -8.936134    -7.900104    -12.713219    0.415698    -0.546688    -0.461243    -10.643917    -14.221174    -10.437369    12.486539    30.312851    -15.064662    0.000000    0.000000    0.000000    0.000000    0.000000    0.000000    
-6.246714    80.902878    111.983147    1.154972    -9.671094    -160.796280    -1.281840    -10.323642    2.020178    -0.075442    10.380368    2.142823    -0.608336    12.147472    -7.009337    15.526972    1.927477    -5.315553    6.426262    8.377342    -14.419546    -39.729790    24.417040    -70.412270    1.044962    -33.587673    -124.597366    38.478436    -27.715969    13.796799    0.107350    11.011749    11.363161    52.107254    -3.068146    55.201149    0.224769    -33.517998    134.924164    -17.834671    -33.370750    -4.576122    4.647797    -26.660505    -2.425805    0.915750    30.287912    7.476311    -9.040205    -7.864732    -12.913023    0.528217    -0.374846    -0.585906    -10.566538    -13.824033    -10.734480    12.704668    30.180426    -15.659719    0.000000    0.000000    0.000000    0.000000    0.000000    0.000000    
-6.252302    80.894020    111.957405    1.550450    -9.680881    -158.945374    -1.417728    -10.306385    2.022598    0.067046    10.327673    2.144377    -0.937945    12.482561    -7.468153    16.168034    1.877787    -5.696814    6.459388    8.213717    -14.077520    -39.136692    24.638941    -70.874260    0.666432    -33.215588    -124.497841    38.621960    -27.906298    13.918665    0.471462    11.544649    10.943838    50.995697    -3.417944    53.527031    -0.073635    -32.728447    134.370102    -17.270226    -32.084095    -3.874130    4.390438    -27.161060    -2.990388    1.227222    30.290949    6.323297    -9.136224    -7.795933    -13.122445    0.645352    -0.214896    -0.715626    -10.472380    -13.393891    -10.985418    12.935507    29.973166    -16.274443    0.000000    0.000000    0.000000    0.000000    0.000000    0.000000    
